<?xml version="1.0" encoding="utf-8"?>
<!-- Generator: Adobe Illustrator 23.0.3, SVG Export Plug-In . SVG Version: 6.00 Build 0)  -->
<svg version="1.1" id="Layer_1" xmlns="http://www.w3.org/2000/svg" xmlns:xlink="http://www.w3.org/1999/xlink" x="0px" y="0px"
	 viewBox="0 0 100.18 30.57" style="enable-background:new 0 0 100.18 30.57;" xml:space="preserve">
<style type="text/css">
	.st0{fill:#EF4137;}
</style>
<g>
	<g>
		<path class="st0" d="M7.44,24.77c-0.1,0-0.25-0.05-0.51-0.2l-5.81-5.61c-0.31-0.25-0.51-0.46-0.61-0.61
			c-0.1-0.1-0.25-0.31-0.36-0.51C0.05,17.63,0,17.43,0,17.17v-0.82c0-0.25,0.05-0.46,0.15-0.66c0.15-0.2,0.25-0.41,0.36-0.51
			c0.1-0.1,0.31-0.31,0.61-0.61l5.76-5.76c0.15-0.1,0.31-0.15,0.51-0.15s0.36,0.05,0.51,0.2C8,9.02,8.1,9.17,8.1,9.38v0.92
			c0,0.1,0,0.2,0,0.25c0,0.1-0.05,0.15-0.05,0.2c0,0.05-0.05,0.15-0.1,0.2c-0.05,0.1-0.1,0.15-0.1,0.15c0,0.05-0.05,0.1-0.15,0.2
			c-0.1,0.1-0.15,0.15-0.15,0.15s-0.1,0.05-0.2,0.2c-0.1,0.1-0.2,0.15-0.2,0.2l-4.48,4.64c-0.1,0.1-0.2,0.2-0.2,0.31
			s0.05,0.2,0.2,0.31l4.48,4.43c0.05,0.05,0.1,0.1,0.2,0.15c0.1,0.1,0.15,0.15,0.2,0.15c0.05,0.05,0.1,0.1,0.15,0.15
			c0.05,0.05,0.1,0.1,0.15,0.15c0.05,0.05,0.05,0.1,0.1,0.15C8,22.37,8,22.47,8.05,22.52c0,0.05,0.05,0.15,0.05,0.2
			c0,0.1,0,0.15,0,0.25V24c0,0.2-0.05,0.36-0.2,0.51C7.75,24.71,7.59,24.77,7.44,24.77z"/>
		<path class="st0" d="M13.04,30.57c-0.1,0-0.2-0.15-0.2-0.41v-0.05c0-0.05,0-0.05,0-0.1l4.69-29.4C17.63,0.2,17.73,0,17.89,0h2.75
			c0.15,0,0.2,0.15,0.2,0.41c0,0.1,0,0.15,0,0.15l-4.69,29.4c-0.1,0.41-0.2,0.61-0.36,0.61H13.04z"/>
		<path class="st0" d="M25.27,27.16c-0.2,0-0.31-0.05-0.41-0.15c-0.1-0.1-0.1-0.31-0.1-0.61V4.23c0-0.31,0.05-0.56,0.1-0.61
			c0.1-0.1,0.2-0.15,0.41-0.15h2.9c0.2,0,0.31,0.05,0.41,0.15c0.1,0.1,0.1,0.31,0.1,0.61v8.76c0,0.1,0,0.2,0.05,0.25
			c0.05,0.1,0.1,0.1,0.15,0.1h5.96c0.05,0,0.1-0.05,0.15-0.1c0.05-0.1,0.1-0.15,0.1-0.25V4.23c0-0.31,0.05-0.51,0.15-0.61
			c0.1-0.1,0.2-0.15,0.41-0.15h2.96c0.15,0,0.31,0.05,0.36,0.15c0.1,0.1,0.1,0.31,0.1,0.61V26.4c0,0.31-0.05,0.56-0.1,0.61
			c-0.1,0.1-0.2,0.15-0.36,0.15h-2.96c-0.1,0-0.2,0-0.25-0.05c-0.05-0.05-0.1-0.1-0.2-0.2c-0.05-0.1-0.1-0.31-0.1-0.51V16.31
			c0-0.25-0.05-0.36-0.2-0.36h-6.01c-0.15,0-0.2,0.1-0.2,0.36V26.4c0,0.31-0.05,0.51-0.15,0.61c-0.1,0.1-0.2,0.15-0.41,0.15H25.27z"
			/>
		<path class="st0" d="M46.47,27.16c-0.15,0-0.31-0.05-0.36-0.15c-0.1-0.1-0.15-0.31-0.15-0.61V6.52c0-0.25-0.05-0.41-0.2-0.41
			h-3.47c-0.15,0-0.2,0-0.31,0c-0.05,0-0.1-0.05-0.15-0.15c-0.05-0.1-0.05-0.25-0.05-0.46V4.18c0-0.31,0.05-0.51,0.1-0.56
			c0.1-0.1,0.2-0.15,0.41-0.15h11.26c0.15,0,0.31,0.05,0.36,0.15c0.1,0.1,0.1,0.31,0.1,0.56V5.5c0,0.25-0.05,0.46-0.1,0.51
			c-0.05,0.05-0.2,0.1-0.41,0.1h-3.41c-0.15,0-0.2,0.15-0.2,0.41V26.4c0,0.31-0.05,0.56-0.15,0.66c-0.1,0.1-0.2,0.15-0.41,0.15
			h-2.85V27.16z"/>
		<path class="st0" d="M56.92,27.16c-0.31,0-0.46-0.25-0.46-0.82v-0.1l0.92-21.91c0-0.61,0.2-0.92,0.51-0.92h3.16
			c0.2,0,0.36,0.05,0.51,0.15c0.15,0.1,0.25,0.31,0.31,0.61l3.36,15.59c0,0.05,0.05,0.1,0.05,0.1c0.05,0,0.05,0,0.1,0
			c0.05,0,0.05-0.05,0.05-0.1l3.36-15.49c0.1-0.51,0.36-0.82,0.76-0.82h3.21c0.31,0,0.46,0.36,0.46,0.92l0.92,21.91v0.1
			c0,0.51-0.15,0.82-0.51,0.82h-2.19c-0.31,0-0.51-0.31-0.51-0.87L70.32,9.33c0-0.05,0-0.1-0.05-0.1c-0.05,0-0.05,0-0.1,0.05
			L66.55,26.4c-0.1,0.51-0.36,0.82-0.66,0.82h-1.27c-0.31,0-0.56-0.25-0.66-0.82L60.43,9.38c0-0.05-0.05-0.1-0.1-0.05
			c0,0,0,0.05,0,0.1l-0.66,16.87c0,0.61-0.15,0.87-0.46,0.87L56.92,27.16L56.92,27.16z"/>
		<path class="st0" d="M78.93,27.16c-0.15,0-0.31-0.05-0.36-0.15c-0.1-0.1-0.1-0.31-0.1-0.61V4.23c0-0.31,0.05-0.56,0.1-0.61
			c0.1-0.1,0.2-0.15,0.36-0.15h2.96c0.15,0,0.31,0.05,0.36,0.15c0.1,0.1,0.1,0.31,0.1,0.61V24.2c0,0.25,0.1,0.36,0.25,0.36h5.2
			c0.15,0,0.31,0.05,0.36,0.1c0.1,0.1,0.1,0.25,0.1,0.51v1.32c0,0.25-0.05,0.46-0.1,0.56c-0.1,0.1-0.2,0.1-0.36,0.1H78.93z"/>
		<path class="st0" d="M92.84,24.77c-0.2,0-0.36-0.05-0.46-0.2c-0.1-0.15-0.2-0.31-0.2-0.51v-0.92c0-0.1,0-0.15,0-0.2
			c0-0.05,0-0.15,0.05-0.2c0-0.05,0.05-0.1,0.05-0.15c0.05-0.05,0.05-0.1,0.05-0.15c0-0.05,0.05-0.1,0.1-0.15
			c0.05-0.05,0.1-0.1,0.1-0.15c0-0.05,0.05-0.05,0.1-0.15c0.05-0.05,0.1-0.1,0.15-0.15c0.05,0,0.1-0.05,0.15-0.15
			c0.1-0.05,0.15-0.1,0.15-0.15l4.48-4.59c0.1-0.1,0.15-0.2,0.15-0.31s-0.05-0.2-0.2-0.31l-4.43-4.43c-0.05-0.05-0.1-0.1-0.25-0.2
			c-0.1-0.1-0.2-0.15-0.2-0.2c-0.05-0.05-0.1-0.1-0.15-0.15c-0.1-0.1-0.15-0.15-0.15-0.2s-0.05-0.1-0.1-0.2
			c-0.05-0.1-0.05-0.15-0.1-0.25c0-0.1,0-0.2,0-0.31V9.27c0-0.2,0.05-0.36,0.2-0.51c0.1-0.1,0.25-0.2,0.46-0.2
			c0.15,0,0.31,0.05,0.51,0.2l5.81,5.66c0.31,0.31,0.51,0.51,0.61,0.61c0.1,0.1,0.2,0.25,0.31,0.46c0.1,0.2,0.15,0.46,0.15,0.66
			v0.82c0,0.1,0,0.15,0,0.25c0,0.05-0.05,0.15-0.05,0.2c-0.05,0.1-0.05,0.15-0.05,0.2c0,0.05-0.05,0.1-0.1,0.2
			c-0.05,0.1-0.1,0.15-0.1,0.15s-0.05,0.1-0.15,0.2c-0.1,0.1-0.15,0.15-0.15,0.15s-0.1,0.1-0.2,0.2c-0.1,0.1-0.2,0.15-0.2,0.2
			l-5.76,5.76C93.15,24.71,93,24.77,92.84,24.77z"/>
	</g>
</g>
</svg>
